Coordinates
version=1
nRows=12
nColumns=24
inDegrees=yes

Units are S.I. units (second, meters, Newtons, ...)
Angles are in degrees.

endheader
time	pelvis_tilt	pelvis_list	pelvis_rotation	pelvis_tx	pelvis_ty	pelvis_tz	hip_flexion_r	hip_adduction_r	hip_rotation_r	knee_angle_r	ankle_angle_r	subtalar_angle_r	mtp_angle_r	hip_flexion_l	hip_adduction_l	hip_rotation_l	knee_angle_l	ankle_angle_l	subtalar_angle_l	mtp_angle_l	lumbar_extension	lumbar_bending	lumbar_rotation
      4.01000000	    -10.15466043	      4.34690679	     -0.58946889	     -2.05757136	     -0.01325076	     -0.72652559	     20.96044634	     -8.32109273	     -4.11698860	    -64.89974161	    -17.78006397	    -18.22572204	      4.49375807	     24.51609339	      5.27683758	    -13.10586769	    -20.58755119	      1.71092794	     -7.59276915	      5.56484807	      7.29618912	     -6.81748668	     -2.30144892
      4.01500000	    -10.27087396	      4.23705565	     -0.40260269	     -2.05216962	     -0.01249756	     -0.72743010	     21.94728886	     -8.24484148	     -4.24347272	    -65.47511758	    -17.12268244	    -18.24250636	      4.77867313	     24.09743976	      5.34777693	    -12.84180709	    -20.24833914	      1.86967834	     -7.58311505	      5.66181917	      7.33647051	     -6.71730038	     -2.56127442
      4.02000000	    -10.36182360	      4.16368541	     -0.30706935	     -2.04676098	     -0.01172118	     -0.72820840	     22.91967963	     -8.16510765	     -4.24624662	    -65.97527119	    -16.40252397	    -18.08878637	      5.18924202	     23.62917148	      5.41744693	    -12.67510328	    -19.87281187	      2.02164637	     -7.57183961	      5.69098484	      7.37092855	     -6.63648717	     -2.70146862
      4.02500000	    -10.42958506	      4.10097371	     -0.20238946	     -2.04132496	     -0.01092531	     -0.72898992	     23.83962601	     -8.09707076	     -4.25636690	    -66.37368890	    -15.69328919	    -17.94140394	      5.64592322	     23.11910967	      5.50338071	    -12.49962320	    -19.47044366	      2.18597696	     -7.54347324	      5.67235772	      7.38442419	     -6.56608092	     -2.83770560
      4.03000000	    -10.47677788	      4.04448042	     -0.10652838	     -2.03587019	     -0.01010903	     -0.72974293	     24.71537552	     -8.02770943	     -4.25788850	    -66.67566326	    -14.98581932	    -17.77699705	      6.15952408	     22.57382883	      5.59248176	    -12.32564190	    -19.04683408	      2.33798919	     -7.52311759	      5.60041801	      7.38445823	     -6.50152202	     -2.96475997
      4.03500000	    -10.50130711	      4.00475953	     -0.04014723	     -2.03043059	     -0.00928182	     -0.73050702	     25.55179026	     -7.96381459	     -4.22014120	    -66.86068541	    -14.40346174	    -17.73455178	      7.19439922	     21.98586151	      5.70712883	    -12.09862195	    -18.59266146	      2.48162781	     -7.61591820	      5.26232584	      7.36194758	     -6.43729566	     -3.02247013
      4.04000000	    -10.48937085	      3.94379866	      0.09342736	     -2.02488313	     -0.00842043	     -0.73124702	     26.29568894	     -7.90406306	     -4.29702496	    -66.96989153	    -13.73003791	    -17.64846989	      7.45349532	     21.34884649	      5.79024299	    -11.95070433	    -18.13310119	      2.69126004	     -7.45098753	      5.25546571	      7.31314879	     -6.37293811	     -3.19170106
      4.04500000	    -10.45395928	      3.89672615	      0.19004792	     -2.01934545	     -0.00754711	     -0.73193333	     26.99713324	     -7.82853428	     -4.30529751	    -66.98972195	    -13.00992037	    -17.49428396	      7.77565207	     20.67169775	      5.87905226	    -11.80504910	    -17.64191628	      2.83890045	     -7.37088004	      5.19180636	      7.24359668	     -6.31573028	     -3.30118531
      4.05000000	    -10.38424737	      3.85956019	      0.28839331	     -2.01377226	     -0.00663704	     -0.73260676	     27.62803252	     -7.76506604	     -4.32418338	    -66.90867006	    -12.31495491	    -17.39288069	      8.12888785	     19.94183823	      5.97679967	    -11.66546980	    -17.12466141	      2.94679350	     -7.29583078	      5.08642618	      7.14359417	     -6.26920676	     -3.42589955
      4.05500000	    -10.28862043	      3.81672018	      0.39261410	     -2.00817799	     -0.00572126	     -0.73330314	     28.19901459	     -7.70149730	     -4.36334054	    -66.73034182	    -11.67337796	    -17.36044528	      8.46576626	     19.17054148	      6.07049393	    -11.51954699	    -16.58577905	      3.08162208	     -7.20159107	      4.97974314	      7.01689429	     -6.20986734	     -3.54026505
      4.06000000	    -10.18072422	      3.77055705	      0.50202432	     -2.00257128	     -0.00482178	     -0.73398127	     28.72881278	     -7.63584658	     -4.41939520	    -66.46672963	    -11.06392564	    -17.38897326	      8.73693393	     18.38035822	      6.15428447	    -11.38648738	    -16.03807096	      3.21905845	     -7.06975717	      4.89837614	      6.88368218	     -6.14827607	     -3.65615559
      4.06500000	    -10.07076261	      3.72327478	      0.61003258	     -1.99694726	     -0.00396686	     -0.73467073	     29.23348416	     -7.57650735	     -4.49357226	    -66.12503733	    -10.49487640	    -17.46306127	      8.93416586	     17.57957395	      6.23378523	    -11.25609990	    -15.47699216	      3.38037988	     -6.92085927	      4.85321575	      6.75059585	     -6.08183860	     -3.76054487
